<svg width="16" height="16" viewBox="0 0 16 16" fill="none" xmlns="http://www.w3.org/2000/svg">
<path d="M15.2835 0.716469C14.8215 0.254438 14.2072 0 13.5537 0C12.9003 0 12.2859 0.254438 11.8239 0.716469L8.62497 3.91572C7.90656 3.47416 6.95159 3.56375 6.32984 4.18553C5.70812 4.80725 5.61847 5.76209 6.05994 6.48047L1.98816 10.5525C1.94206 10.5953 1.91325 10.6565 1.91325 10.7244C1.91325 10.8538 2.01834 10.9587 2.14778 10.9587C2.20994 10.9587 2.26956 10.9341 2.31353 10.8901L6.35516 6.84819L9.15197 9.645L4.77862 14.0183C4.32203 14.4749 3.669 14.6797 3.03181 14.5658C2.95634 14.5524 2.87909 14.5766 2.82487 14.6308L2.22581 15.2299C2.03147 15.4242 1.77312 15.5312 1.49819 15.5312C1.49784 15.5312 1.49753 15.5312 1.49719 15.5312C1.22303 15.5312 0.964936 15.4241 0.770374 15.2296C0.575967 15.0352 0.468842 14.7767 0.46878 14.5018C0.468717 14.2269 0.575686 13.9685 0.770061 13.7742L1.36912 13.1751C1.42331 13.1209 1.44759 13.0437 1.43412 12.9682C1.34565 12.4723 1.44659 11.9678 1.71834 11.5476C1.78866 11.4388 1.7575 11.2938 1.64878 11.2235C1.54009 11.1532 1.395 11.1843 1.32472 11.293C1.01081 11.7785 0.880936 12.3544 0.953874 12.9274L0.438624 13.4427C0.155717 13.7256 -3.26726e-05 14.1018 6.10775e-05 14.5019C0.000154827 14.902 0.15603 15.2781 0.438936 15.561C0.72203 15.8442 1.09778 16 1.49697 16H1.49841C1.89834 16 2.27437 15.8442 2.55725 15.5613L3.07256 15.0461C3.82072 15.1409 4.57456 14.8853 5.11009 14.3498L9.51925 9.94059C9.81009 10.1201 10.1455 10.2164 10.4959 10.2164C10.994 10.2164 11.4623 10.0224 11.8146 9.67022C12.1668 9.318 12.3608 8.84966 12.3608 8.35153C12.3608 8.00116 12.2644 7.66575 12.0849 7.37491L14.1301 5.32947C14.2216 5.23794 14.2216 5.08953 14.1301 4.99803C14.0385 4.9065 13.8901 4.9065 13.7986 4.99806L11.7893 7.00763L8.99269 4.21097L12.1554 1.04791C12.9264 0.276844 14.181 0.276875 14.952 1.04784C15.3255 1.42162 15.5312 1.91828 15.5312 2.44625C15.5312 2.9745 15.3255 3.47109 14.9521 3.84459L14.4618 4.33491C14.3702 4.42644 14.3702 4.57484 14.4618 4.66634C14.5533 4.75787 14.7017 4.75787 14.7932 4.66634L15.2835 4.17603C15.7455 3.714 16 3.09969 16 2.44622C16 1.79312 15.7455 1.17884 15.2835 0.716469V0.716469ZM11.4831 9.33878C10.9387 9.88313 10.053 9.88316 9.50863 9.33878L6.66128 6.49147C6.11694 5.94709 6.11694 5.06134 6.66128 4.51697C6.93347 4.24478 7.291 4.10869 7.64853 4.10869C8.00606 4.10869 8.36359 4.24478 8.63578 4.51697L11.4831 7.36431C12.0275 7.90869 12.0275 8.79441 11.4831 9.33878V9.33878Z" fill="#252237"/>
</svg>
