<svg width="18" height="18" viewBox="0 0 18 18" fill="none" xmlns="http://www.w3.org/2000/svg">
<g clip-path="url(#clip0)">
<path d="M4.11166 0H0.572777C0.328461 0 0.130417 0.198399 0.130417 0.443154V3.98839C0.130417 4.23314 0.328461 4.43154 0.572777 4.43154H4.11166C4.35597 4.43154 4.55402 4.23314 4.55402 3.98839V0.443154C4.55402 0.198399 4.35597 0 4.11166 0Z" fill="#252237"/>
<path d="M10.8346 0H7.29577C7.05145 0 6.85341 0.198399 6.85341 0.443154V3.98839C6.85341 4.23314 7.05145 4.43154 7.29577 4.43154H10.8346C11.079 4.43154 11.277 4.23314 11.277 3.98839V0.443154C11.277 0.198399 11.079 0 10.8346 0Z" fill="#252237"/>
<path d="M4.11166 6.78424H0.572777C0.328461 6.78424 0.130417 6.98264 0.130417 7.22739V10.7726C0.130417 11.0174 0.328461 11.2158 0.572777 11.2158H4.11166C4.35597 11.2158 4.55402 11.0174 4.55402 10.7726V7.22739C4.55402 6.98264 4.35597 6.78424 4.11166 6.78424Z" fill="#252237"/>
<path d="M10.8346 6.78424H7.29577C7.05145 6.78424 6.85341 6.98264 6.85341 7.22739V10.7726C6.85341 11.0174 7.05145 11.2158 7.29577 11.2158H10.8346C11.079 11.2158 11.277 11.0174 11.277 10.7726V7.22739C11.277 6.98264 11.079 6.78424 10.8346 6.78424Z" fill="#252237"/>
<path d="M17.5576 0H14.0188C13.7744 0 13.5764 0.198399 13.5764 0.443154V3.98839C13.5764 4.23314 13.7744 4.43154 14.0188 4.43154H17.5576C17.802 4.43154 18 4.23314 18 3.98839V0.443154C18 0.198399 17.8019 0 17.5576 0Z" fill="#252237"/>
<path d="M17.5576 6.78424H14.0188C13.7744 6.78424 13.5764 6.98264 13.5764 7.22739V10.7726C13.5764 11.0174 13.7744 11.2158 14.0188 11.2158H17.5576C17.802 11.2158 18 11.0174 18 10.7726V7.22739C18 6.98264 17.8019 6.78424 17.5576 6.78424Z" fill="#252237"/>
<path d="M4.11166 13.5685H0.572777C0.328461 13.5685 0.130417 13.7669 0.130417 14.0116V17.5568C0.130417 17.8016 0.328461 18 0.572777 18H4.11166C4.35597 18 4.55402 17.8016 4.55402 17.5568V14.0116C4.55402 13.7669 4.35597 13.5685 4.11166 13.5685Z" fill="#252237"/>
<path d="M10.8346 13.5685H7.29577C7.05145 13.5685 6.85341 13.7669 6.85341 14.0116V17.5568C6.85341 17.8016 7.05145 18 7.29577 18H10.8346C11.079 18 11.277 17.8016 11.277 17.5568V14.0116C11.277 13.7669 11.079 13.5685 10.8346 13.5685Z" fill="#252237"/>
<path d="M17.5576 13.5685H14.0188C13.7744 13.5685 13.5764 13.7669 13.5764 14.0116V17.5568C13.5764 17.8016 13.7744 18 14.0188 18H17.5576C17.802 18 18 17.8016 18 17.5568V14.0116C18 13.7669 17.8019 13.5685 17.5576 13.5685Z" fill="#252237"/>
</g>
<defs>
<clipPath id="clip0">
<rect width="18" height="18" fill="white"/>
</clipPath>
</defs>
</svg>
