<svg width="35" height="35" viewBox="0 0 35 35" fill="none" xmlns="http://www.w3.org/2000/svg">
<g clip-path="url(#clip0)">
<path d="M33.8892 15.3682L18.3155 0.331742C17.8618 -0.110499 17.1382 -0.110499 16.6845 0.331742L1.11141 15.3676C0.882143 15.5889 0.752686 15.8938 0.752686 16.2125C0.752686 16.861 1.27844 17.3867 1.92691 17.3867H3.99647V33.8258C3.99647 34.4743 4.52216 35 5.17069 35H13.3902C14.0388 35 14.5645 34.4743 14.5645 33.8258V24.432H20.4356V33.8258C20.4356 34.4743 20.9612 35 21.6098 35H29.8293C30.4779 35 31.0036 34.4743 31.0036 33.8258V17.3867H33.0731C33.3915 17.3867 33.6961 17.2575 33.9174 17.0286C34.3681 16.5623 34.3554 15.8189 33.8892 15.3682ZM31.0036 16.2125C30.355 16.2125 29.8293 16.7382 29.8293 17.3867V33.8258H21.6098V24.432C21.6098 23.7835 21.0841 23.2578 20.4356 23.2578H14.5645C13.9159 23.2578 13.3902 23.7835 13.3902 24.432V33.8258H5.17069V17.3867C5.17069 16.7382 4.64501 16.2125 3.99647 16.2125H1.92691L17.5 1.17659L33.079 16.2125H31.0036Z" fill="#EFEFEF"/>
</g>
<defs>
<clipPath id="clip0">
<rect width="35" height="35" fill="white"/>
</clipPath>
</defs>
</svg>
