<svg width="35" height="35" viewBox="0 0 35 35" fill="none" xmlns="http://www.w3.org/2000/svg">
<path d="M33.9513 21.3369L30.7342 18.8213C30.7765 18.4333 30.81 17.9798 30.81 17.5C30.81 17.0202 30.775 16.5667 30.7342 16.1787L33.9542 13.6617C34.5521 13.1892 34.7169 12.3506 34.3348 11.6521L30.9894 5.864C30.6233 5.19757 29.8023 4.89275 29.0542 5.16838L25.2581 6.69231C24.5319 6.16731 23.7692 5.724 22.9802 5.36963L22.4027 1.34319C22.308 0.5775 21.643 0 20.8569 0H14.1486C13.3625 0 12.6975 0.5775 12.6042 1.32856L12.0253 5.36963C11.2611 5.71525 10.5101 6.15132 9.75027 6.69382L5.94402 5.16551C5.21634 4.88113 4.38796 5.18157 4.0234 5.84944L0.673584 11.6463C0.278399 12.3143 0.440274 13.1805 1.05277 13.6646L4.26983 16.1788C4.21877 16.6718 4.19402 17.099 4.19402 17.5001C4.19402 17.9011 4.21884 18.3284 4.26696 18.8213L1.04696 21.3399C0.450459 21.8123 0.28708 22.6508 0.667705 23.3494L4.01314 29.1375C4.37627 29.8025 5.19583 30.1058 5.94833 29.8331L9.74439 28.3092C10.4706 28.8328 11.2348 29.2761 12.0238 29.6319L12.6013 33.6569C12.6961 34.4225 13.3611 35 14.1471 35H20.8554C21.6415 35 22.3065 34.4225 22.3998 33.6714L22.9787 29.6319C23.7429 29.2862 24.4939 28.8502 25.2537 28.3077L29.0599 29.836C29.7848 30.1174 30.616 29.8199 30.9806 29.1521L34.3435 23.3347C34.7155 22.6523 34.5521 21.8137 33.9513 21.3369ZM33.069 22.6202L29.5952 28.4797L25.42 26.8027C25.1838 26.7079 24.9155 26.7444 24.7113 26.896C23.8071 27.5727 22.9336 28.0816 22.0381 28.4477C21.799 28.5454 21.6283 28.7627 21.5919 29.0194L20.8555 33.5417L14.0494 33.4644L13.4121 29.0208C13.3741 28.7641 13.205 28.5469 12.9658 28.4491C12.034 28.0671 11.1371 27.5464 10.2985 26.9018C10.1687 26.8012 10.0112 26.7501 9.8537 26.7501C9.76183 26.7501 9.66995 26.7662 9.58102 26.8026L5.2862 28.4228L1.94076 22.6347C1.91014 22.5778 1.91595 22.5122 1.95095 22.4845L5.49032 19.7181C5.69157 19.5606 5.79657 19.3068 5.76451 19.0531C5.6872 18.442 5.6522 17.9476 5.6522 17.4999C5.6522 17.0522 5.68863 16.5593 5.76451 15.9468C5.79657 15.6916 5.69157 15.4393 5.49032 15.2818L1.93358 12.3812L5.40733 6.52169L9.58252 8.19875C9.8202 8.295 10.0871 8.25856 10.2927 8.10544C11.1954 7.42731 12.0704 6.91981 12.9658 6.55375C13.205 6.45456 13.3741 6.23731 13.4106 5.98206L14.1486 1.45831L20.9561 1.53706L21.5919 5.98206C21.6298 6.23875 21.799 6.456 22.0381 6.55375C22.9686 6.93438 23.8655 7.455 24.7055 8.10106C24.9111 8.25856 25.1809 8.2965 25.4215 8.19875L29.7163 6.57856L33.0618 12.3667C33.0924 12.4236 33.0866 12.4878 33.0516 12.5154L29.5122 15.2819C29.311 15.4394 29.206 15.6917 29.238 15.9469C29.2935 16.3902 29.3503 16.9225 29.3503 17.5C29.3503 18.0789 29.2935 18.6098 29.238 19.0531C29.206 19.3069 29.311 19.5606 29.5122 19.7181L33.0472 22.4831C33.085 22.5138 33.0923 22.5794 33.069 22.6202Z" fill="#EFEFEF"/>
<path d="M17.5013 10.2083C13.4807 10.2083 10.2096 13.4794 10.2096 17.5C10.2096 21.5206 13.4807 24.7917 17.5013 24.7917C21.5219 24.7917 24.793 21.5206 24.793 17.5C24.793 13.4794 21.5219 10.2083 17.5013 10.2083ZM17.5013 23.3333C14.2842 23.3333 11.668 20.7171 11.668 17.5C11.668 14.2829 14.2842 11.6667 17.5013 11.6667C20.7184 11.6667 23.3346 14.2829 23.3346 17.5C23.3346 20.7171 20.7184 23.3333 17.5013 23.3333Z" fill="#EFEFEF"/>
</svg>
