<svg width="12" height="14" viewBox="0 0 12 14" fill="none" xmlns="http://www.w3.org/2000/svg">
<path
        d="M11.4331 0.388926C11.0744 0.14605 10.5877 0.00911545 10.0796 0.00810263H1.92018V0C1.41135 0.000607697 0.923646 0.137583 0.56427 0.380823C0.204594 0.623092 0.00180738 0.951775 0.000307483 1.2948V12.8718C-0.007372 13.1554 0.128999 13.4322 0.386682 13.6562C0.748338 13.9699 1.37476 14.0831 1.92018 13.9333C2.40003 13.7912 2.7978 13.5471 3.0529 13.2381L5.99991 10.0651L8.94691 13.2381C9.20201 13.5471 9.59979 13.7912 10.0796 13.9333C10.6271 14.085 11.2572 13.9717 11.6203 13.6562C11.8754 13.4316 12.0092 13.1548 11.9995 12.8718V1.2948C11.9942 0.954327 11.7908 0.628966 11.4331 0.388926ZM10.8476 13.2446C10.8003 13.2866 10.7349 13.3177 10.6604 13.3337C10.5801 13.3456 10.4963 13.3404 10.4204 13.3191C10.1402 13.2283 9.90937 13.0804 9.76046 12.8961L6.40068 9.28237C6.36012 9.23675 6.30361 9.19855 6.23605 9.1712C6.00873 9.07911 5.71391 9.12886 5.57753 9.28237L2.21776 12.8913C2.07209 13.078 1.84278 13.2288 1.5626 13.3223C1.48677 13.3438 1.40295 13.3489 1.32262 13.3369C1.2481 13.321 1.18271 13.2898 1.13543 13.2478C1.02042 13.1389 0.962943 13.0071 0.972243 12.8735V1.29642C0.978722 0.944726 1.39935 0.660688 1.92018 0.656313H5.99991H10.0796C10.5957 0.662471 11.0096 0.946306 11.0108 1.2948V12.8702C11.0201 13.0038 10.9626 13.1357 10.8476 13.2446Z" fill="#252237"/>
</svg>
