<svg width="18" height="18" viewBox="0 0 18 18" fill="none" xmlns="http://www.w3.org/2000/svg">
<g clip-path="url(#clip0)">
<path d="M8.99999 18C4.0373 18 0 13.9627 0 9C0 4.0373 4.0373 0 8.99999 0C10.6811 0 12.3209 0.466563 13.7424 1.34946C13.9908 1.50361 14.0669 1.83006 13.9128 2.07852C13.7583 2.32694 13.4319 2.40362 13.1837 2.24892C11.9302 1.47022 10.4835 1.05885 8.99999 1.05885C4.62119 1.05885 1.05881 4.62135 1.05881 9.00004C1.05881 13.3787 4.62119 16.9412 8.99999 16.9412C13.3787 16.9412 16.9412 13.3787 16.9412 9C16.9412 8.11986 16.7983 7.25569 16.5166 6.43154C16.422 6.15497 16.5698 5.85388 16.8463 5.75929C17.1235 5.66526 17.424 5.81252 17.5186 6.08909C17.8379 7.02383 18 8.00324 18 9.00004C18 13.9627 13.9627 18 8.99999 18Z" fill="#40976D" fill-opacity="0.8"/>
<path d="M9.00003 12.0535C8.86575 12.0535 8.73588 12.0025 8.63759 11.9098L4.40229 7.93124C4.18916 7.73108 4.17867 7.39604 4.37887 7.1829C4.57908 6.97004 4.91408 6.959 5.12721 7.15976L8.95512 10.7556L15.9108 2.49842C16.0988 2.2748 16.433 2.24614 16.6566 2.43471C16.8803 2.62305 16.9089 2.95694 16.7204 3.18057L9.40481 11.8652C9.31133 11.9763 9.17595 12.0441 9.0309 12.0527C9.02073 12.0532 9.01024 12.0535 9.00003 12.0535Z" fill="#40976D" fill-opacity="0.8"/>
</g>
<defs>
<clipPath id="clip0">
<rect width="18" height="18" fill="white"/>
</clipPath>
</defs>
</svg>
