<svg width="16" height="16" viewBox="0 0 16 16" fill="none" xmlns="http://www.w3.org/2000/svg">
<g opacity="1" clip-path="url(#clip0)">
<path d="M14.7674 10.0511C14.5473 10.0511 14.3689 10.2295 14.3689 10.4496V13.9876C14.3681 14.6476 13.8334 15.1825 13.1734 15.1831H1.99241C1.33243 15.1825 0.797744 14.6476 0.796966 13.9876V3.60359C0.797744 2.94376 1.33243 2.40892 1.99241 2.40814H5.53051C5.75061 2.40814 5.92899 2.22976 5.92899 2.00966C5.92899 1.78971 5.75061 1.61118 5.53051 1.61118H1.99241C0.892539 1.61242 0.00124526 2.50371 0 3.60359V13.9878C0.00124526 15.0877 0.892539 15.979 1.99241 15.9802H13.1734C14.2733 15.979 15.1646 15.0877 15.1659 13.9878V10.4496C15.1659 10.2295 14.9875 10.0511 14.7674 10.0511Z" fill="#433B68"/>
<path d="M15.0081 0.585896C14.3077 -0.114407 13.1724 -0.114407 12.4721 0.585896L5.36288 7.69508C5.31416 7.7438 5.27898 7.8042 5.26061 7.87051L4.32573 11.2456C4.28728 11.384 4.32635 11.5322 4.42784 11.6338C4.52948 11.7353 4.67767 11.7744 4.81605 11.7361L8.19118 10.8011C8.25749 10.7827 8.31788 10.7475 8.3666 10.6988L15.4756 3.58946C16.1749 2.88869 16.1749 1.75426 15.4756 1.05349L15.0081 0.585896ZM6.23114 7.95409L12.0495 2.13562L13.9259 4.01207L8.10743 9.83054L6.23114 7.95409ZM5.85631 8.70623L7.35545 10.2055L5.28178 10.7801L5.85631 8.70623ZM14.9122 3.02598L14.4896 3.44859L12.6129 1.57199L13.0357 1.14938C13.4247 0.760388 14.0554 0.760388 14.4444 1.14938L14.9122 1.61697C15.3005 2.00643 15.3005 2.63668 14.9122 3.02598Z" fill="#433B68"/>
</g>
<defs>
<clipPath id="clip0">
<rect width="16" height="16" fill="white"/>
</clipPath>
</defs>
</svg>
