<svg width="18" height="18" viewBox="0 0 18 18" fill="none" xmlns="http://www.w3.org/2000/svg">
<path
        d="M13.6689 8.75219L7.06888 4.2522C6.97678 4.1898 6.85798 4.1829 6.75958 4.2348C6.66148 4.2867 6.59998 4.3887 6.59998 4.5V13.5C6.59998 13.6113 6.66148 13.7133 6.75988 13.7652C6.80368 13.7886 6.85198 13.8 6.89998 13.8C6.95908 13.8 7.01818 13.7823 7.06888 13.7478L13.6689 9.24779C13.7508 9.19199 13.8 9.09929 13.8 8.99999C13.8 8.90069 13.7508 8.80799 13.6689 8.75219ZM7.19998 12.9321V5.0679L12.9675 8.99999L7.19998 12.9321Z" fill="#252237" fill-opacity="1"/>
<path
        d="M9 0C4.0374 0 0 4.0374 0 9C0 13.9626 4.0374 18 9 18C13.9626 18 18 13.9626 18 9C18 4.0374 13.9626 0 9 0ZM9 17.4C4.3683 17.4 0.6 13.6317 0.6 9C0.6 4.3683 4.3683 0.6 9 0.6C13.6317 0.6 17.4 4.3683 17.4 9C17.4 13.6317 13.6317 17.4 9 17.4Z" fill="#252237" fill-opacity="1"/>
</svg>
